<?xml version="1.0" encoding="utf-8"?>
<!-- Generator: Adobe Illustrator 19.2.1, SVG Export Plug-In . SVG Version: 6.00 Build 0)  -->
<svg version="1.1" id="Layer_1" xmlns="http://www.w3.org/2000/svg" xmlns:xlink="http://www.w3.org/1999/xlink" x="0px" y="0px"
	 viewBox="0 0 612 792" style="enable-background:new 0 0 612 792;" xml:space="preserve">
<style type="text/css">
	.st0{stroke:#FF6138;
	stroke-width:5;
	stroke-miterlimit:10;
	fill:#FF6138;}
	.st1{stroke:#3DE3D2;
	stroke-miterlimit:10;
	fill:#3DE3D2;}
</style>
<path class="st0" d="M273.5,339.5c5.1,9.8,9.6,19.8,13.1,30.2c2.7,8,5.2,16.1,6.4,24.4c1.2,8.2,2.6,16.5,3.1,24.8
	c0.7,11.2,1.1,22.4,0.7,33.6c-0.6,17.2-2.9,34.2-7.9,50.9c-3.5,11.5-7.7,22.7-13.5,33.3c-5.9,10.7-13,20.7-22.1,29
	c-9.9,9-21.2,15.7-34.3,19.1c-14.6,3.8-29.1,3.4-43.1-2.5c-11.4-4.8-20.8-12.1-28.1-22.2c-6.2-8.6-10.5-18-12.6-28.4
	c-4.3-21.8-2.1-42.8,9.3-62.1c10.3-17.4,25.3-29.2,44.6-35.3c13.8-4.4,27.9-7.1,42.5-7.6c3.7-0.1,7.4-0.2,11-0.7
	c2.7-0.4,5.5-1.2,7.9-2.4c4.1-2.1,5.7-6.4,4.6-10.8c-1-3.8-4.6-6.3-9.1-6.5c-3.3-0.2-6.3,0.7-9.3,2.3c-6,3.2-11.9,6.6-18,9.3
	c-16.9,7.4-34.6,11.4-53.1,9.9c-19.4-1.6-36-9.3-48.8-24.2c-9.2-10.8-14.7-23.4-17.4-37.3c-3.3-16.9-2.5-33.6,1.3-50.2
	c2.7-11.8,5.8-23.5,8.3-35.3c2.8-13,5.3-26.1,5.6-39.5c0.3-15.1-2.4-29.6-7.9-43.6c-3.1-8.1-7-15.9-10.2-23.9
	c-1.8-4.5-3.2-9.2-4.4-13.9c-0.5-2.1-0.5-4.4-0.3-6.6c0.3-4.4,3-6.6,7.5-5.8c5.7,0.9,10.8,3.4,15.7,6.3c12.4,7.3,23.8,16,34.8,25.2
	c11,9.2,21.4,19,31.6,29.1c9.6,9.5,18.8,19.5,27.7,29.7c1.4,1.6,2.6,3.2,3.5,5.2c-0.5-0.5-1.1-0.9-1.6-1.4
	c-11.2-12.3-23.1-24-35.5-35.1c-9.4-8.3-18.9-16.5-28.7-24.4c-9.4-7.5-19.4-14.1-29.7-20.2c-2.6-1.5-5.3-2.9-8-4.2
	c-1.4-0.6-2.9-1.1-4.4-1.3c-3.3-0.4-5.4,1.2-5,4.5c0.4,3.9,1.3,7.9,2.6,11.6c1.8,5.3,4.1,10.3,6.1,15.5c3.5,9.2,7,18.4,8.4,28.3
	c1.7,12.4,2.5,24.8,0.8,37.2c-1.8,12.9-4.3,25.6-6.5,38.4c-2,11.7-4.3,23.4-6,35.1c-1.9,13.1-1.8,26.2,1.7,39
	c4.4,16.2,12.8,30,26,40.6c14,11.2,30.1,16.2,48,15.9c15.6-0.3,29.9-5,43.5-12.2c3.4-1.8,6.8-3.8,10.2-5.6
	c5.4-2.9,10.9-4.9,17.2-4.4c8,0.6,13.3,5.7,13.7,13.6c0.3,5.8-2.7,10-7.2,13.1c-3.3,2.3-7.1,3.5-11.2,3.7c-9.6,0.6-19.3,1.1-28.9,2
	c-14.5,1.5-28.8,4.4-41.9,11.1c-7.2,3.7-13.5,8.5-18.9,14.5c-13.6,14.8-19,32.5-18.6,52.3c0.3,14.4,4.5,27.6,13,39.2
	c9.2,12.5,21.6,19.9,37,22c12.1,1.6,23.7-0.3,35-4.5c14.2-5.3,25.8-14,35.6-25.5c12.6-14.8,20.8-31.8,25.9-50.5
	c4-15,6-30.2,6.6-45.7c0.3-8.2,0.6-16.4,0.4-24.6c-0.4-16-2.9-31.8-7-47.3C281.8,361.7,277.9,350.5,273.5,339.5z"/>
<path class="st0" d="M415.2,244.9c4.4-5,8.8-10,13.3-14.9c14.4-15.5,29.8-29.9,46-43.4c12.2-10.1,25-19.6,38.9-27.3
	c3.6-2,7.3-3.7,11.2-5.2c2.4-0.9,5.2-1.4,7.8-1.5c3.4-0.2,5.2,1.8,5.6,5.3c0.5,3.9-0.5,7.5-1.5,11.1c-2,7-5.1,13.5-8.3,19.9
	c-7.1,14.6-12.6,29.7-13.8,46c-0.5,7.2-0.4,14.4,0.1,21.6c1.2,18.4,6,36.1,9.9,54c1.9,9,4.1,18,4.9,27.2c1.4,17,0,33.6-6.7,49.4
	c-8.5,20.1-22.9,34.2-43.9,40.8c-7.6,2.4-15.6,3.4-23.7,3.3c-15.9,0-31-3.7-45.4-10.4c-6.2-2.9-12.2-6.3-18.3-9.6
	c-3.8-2-7.5-3.9-11.9-3.5c-3.8,0.3-6.6,1.9-8.2,5.4c-1.6,3.4-0.8,6.5,1.5,9.3c2.9,3.6,7.1,4.9,11.5,5.1c11.9,0.7,23.7,1.8,35.3,4.6
	c11.4,2.8,22.6,5.9,32.7,12.1c21,12.8,33.4,31.3,37.8,55.4c2.2,12,2,23.9-0.7,35.7c-4.2,18.1-13.4,33-29,43.6
	c-8.3,5.6-17.5,8.9-27.5,10.2c-20.5,2.5-38.3-3.6-54.5-15.7c-10.8-8.1-19.2-18.4-26-30c-8.2-14-13.8-29-17.6-44.8
	c-5.2-21.7-6.8-43.6-5.8-65.8c0.8-16.8,2.5-33.4,7.1-49.7c3.4-11.9,7.7-23.4,13.3-34.4c1.2-2.4,2.4-4.9,3.9-7.1
	c-2.4,6.5-4.9,13-7.2,19.6c-4.9,13.6-8.3,27.6-10.2,42c-1.8,13.2-1.9,26.5-1.5,39.9c0.3,11.3,1.2,22.6,3,33.8
	c2.9,17.9,8.2,35,17.5,50.7c7.2,12.3,16.2,23,27.8,31.5c11.7,8.5,24.7,13.7,39.2,15.2c12.1,1.3,23.5-0.5,34.1-6.4
	c12.4-7,20.6-17.6,25.8-30.7c5.2-13.2,6-26.8,3.6-40.6c-2.5-14.6-8.9-27.4-19.5-37.9c-8.2-8.3-18.1-13.9-29.1-17.6
	c-11.4-3.9-23.2-5.9-35.1-7.2c-7.6-0.8-15.3-1.2-22.9-2c-6.3-0.7-11.7-3.3-15.5-8.7c-5.6-8-1.9-18.3,7.4-21.2c3.3-1,6.6-0.9,9.9-0.2
	c5.1,1,9.6,3.3,14,6c10.2,6.2,20.7,11.6,32.3,14.6c16.3,4.2,32.5,4.3,48.5-1.6c10.5-3.9,19.4-10.2,27-18.4
	c9.1-9.9,15.6-21.3,18.6-34.5c2.2-10.1,2.9-20.2,2-30.5c-1-12.3-3.4-24.4-5.4-36.6c-2.4-14.7-5.7-29.2-6.9-44.1
	c-0.7-8.2-0.5-16.4,0.1-24.6c0.7-8.6,2-17,4.8-25.1c2.7-7.6,5.9-15.1,8.8-22.6c1.9-5,3.6-10,5.3-15.1c0.4-1.1,0.5-2.4,0.4-3.6
	c0-3.6-2-5.3-5.6-4.5c-2,0.4-4.1,1.1-5.9,2.1c-7.8,4.4-15.7,8.7-23.4,13.5c-11.9,7.4-22.9,16.1-33.4,25.3
	c-10.9,9.5-21.6,19.2-32.2,29c-4.9,4.5-9.3,9.5-13.9,14.3C415.5,245.2,415.3,245.1,415.2,244.9z"/>
<path class="st1" d="M394.1,232.2c-2.4,4.3-4.9,8.7-7.3,13.1c-6.6,11.8-11.6,24.2-16.7,36.6c-4.4,10.9-9,21.7-14,32.4
	c-5,10.8-12.5,19.9-20.4,28.7c-2.7,3-5.4,5.9-7.7,9.2c-1.5,2-2.3,4.5-3.4,6.8c-0.3,0.7-0.3,1.6-0.7,2.2c-2.4,3.8-1.7,7.6-1,11.7
	c1.8,9.5,1.8,19.2,1.9,28.9c0.1,15.7-0.4,31.3-1.6,46.9c-0.6,7.6-0.9,15.3-1.6,22.9c-1.5,16.1-3,32.3-6.6,48.1
	c-0.4,1.7-1,3.4-1.6,5.1c-0.2,0.6-0.6,1.1-1,1.8c-1.5-1.3-1.9-2.9-2.2-4.5c-2.3-9.5-3.7-19.2-4.6-28.9c-1.2-14.3-2.4-28.5-3-42.8
	c-0.7-16-1.1-32-1.1-47.9c0-10.4,0.3-20.9,2.6-31.1c0.8-3.4,0.2-6.2-0.5-9.5c-1.8-7.4-6.3-12.8-11.2-18.2
	c-8.4-9.4-16.1-19.4-21.3-30.9c-4.6-10.2-8.7-20.7-12.8-31.1c-5.5-13.9-10.9-27.9-18.2-41.1c-1.7-3-3.4-5.9-4.6-9.2
	c0.7,1,1.6,1.9,2.2,3c6.9,10.5,12.8,21.6,17.7,33.2c5.1,12.1,10.1,24.2,15.5,36.1c4.4,9.8,9.8,19.2,16.9,27.4
	c4.4,5.1,9.2,9.9,15.7,12.7c8.8,3.8,17.1,3,25-2.3c5.8-3.8,10.5-8.9,14.7-14.4c6.7-8.7,11.8-18.3,16.1-28.3
	c4.9-11.2,9.7-22.4,14.9-33.5c4.3-9.1,9.1-18,14.9-26.3C390.7,236.6,392.5,234.5,394.1,232.2L394.1,232.2z"/>
<path class="st0" d="M394.2,232.3c0.3-0.7,0.6-1.3,0.9-2c0.1,0.1,0.3,0.2,0.4,0.3C395,231.1,394.6,231.7,394.2,232.3
	C394.1,232.2,394.2,232.3,394.2,232.3z"/>
</svg>

